# xmcd
#
# Track frame offsets:
#	150
#	12159
#	24129
#	39727
#	61497
#	77412
#	89020
#	105852
#	118958
#	142255
#	151309
#	166974
#	178718
#	195486
#	205762
#
# Disc length: 3144 seconds
#
# Revision: 1
# Processed by: cddbd v1.5.2PL0 Copyright (c) Steve Scherf et al.
# Submitted via: audiograbber 1.83.01
#
DISCID=bf0c460f
DTITLE=Blueswurz - Blueswurz
DYEAR=2009
DGENRE=Blues
TTITLE0=Wunderbar
TTITLE1=Die Dosis
TTITLE2=Endlich frei
TTITLE3=Seit du weg bist
TTITLE4=Z'ruck in unsa Bett
TTITLE5=Verkehr
TTITLE6=Des glabst
TTITLE7=Koa andere
TTITLE8=Schwoaz Katz
TTITLE9=Hör auf mit dem Schmarrn
TTITLE10=Alles in bar
TTITLE11=Durscht
TTITLE12=Irgendwann
TTITLE13=Mach da koane Sorg'n
TTITLE14=A super Frau
EXTD=
EXTT0=
EXTT1=
EXTT2=
EXTT3=
EXTT4=
EXTT5=
EXTT6=
EXTT7=
EXTT8=
EXTT9=
EXTT10=
EXTT11=
EXTT12=
EXTT13=
EXTT14=
PLAYORDER=
